<svg xmlns="http://www.w3.org/2000/svg">
<defs>
<symbol id="logo" viewBox="0 0 32 32"><rect width="32" height="32" rx="7" fill="currentColor"/><g fill="none" stroke="#fff" stroke-width="2" stroke-linecap="round"><path d="M9.5 21.5a9 9 0 0 1 0-11"/><path d="M22.5 10.5a9 9 0 0 1 0 11"/><path d="M12.8 18.6a4.5 4.5 0 0 1 0-5.2"/><path d="M19.2 13.4a4.5 4.5 0 0 1 0 5.2"/></g><circle cx="16" cy="16" r="2.2" fill="#fff"/></symbol>

<symbol id="overview" viewBox="0 0 24 24" fill="none" stroke="currentColor" stroke-width="1.7" stroke-linecap="round" stroke-linejoin="round"><rect x="3" y="3" width="7" height="9" rx="1.5"/><rect x="14" y="3" width="7" height="5" rx="1.5"/><rect x="14" y="12" width="7" height="9" rx="1.5"/><rect x="3" y="16" width="7" height="5" rx="1.5"/></symbol>
<symbol id="devices" viewBox="0 0 24 24" fill="none" stroke="currentColor" stroke-width="1.7" stroke-linecap="round" stroke-linejoin="round"><rect x="2" y="4" width="14" height="10" rx="1.5"/><path d="M6 18h6M9 14v4"/><rect x="17" y="8" width="5" height="12" rx="1.2"/><path d="M19.5 17h.01"/></symbol>
<symbol id="bell" viewBox="0 0 24 24" fill="none" stroke="currentColor" stroke-width="1.7" stroke-linecap="round" stroke-linejoin="round"><path d="M6 8a6 6 0 0 1 12 0c0 7 3 9 3 9H3s3-2 3-9M10.3 21a1.9 1.9 0 0 0 3.4 0"/></symbol>
<symbol id="pulse" viewBox="0 0 24 24" fill="none" stroke="currentColor" stroke-width="1.7" stroke-linecap="round" stroke-linejoin="round"><path d="M3 12h4l3-8 4 16 3-8h4"/></symbol>
<symbol id="gear" viewBox="0 0 24 24" fill="none" stroke="currentColor" stroke-width="1.7" stroke-linecap="round" stroke-linejoin="round"><path d="M12.2 2h-.4a2 2 0 0 0-2 2v.2a2 2 0 0 1-1 1.7l-.4.3a2 2 0 0 1-2 0l-.2-.1a2 2 0 0 0-2.7.7l-.2.4a2 2 0 0 0 .7 2.7l.2.1a2 2 0 0 1 1 1.7v.5a2 2 0 0 1-1 1.7l-.2.1a2 2 0 0 0-.7 2.7l.2.4a2 2 0 0 0 2.7.7l.2-.1a2 2 0 0 1 2 0l.4.3a2 2 0 0 1 1 1.7v.2a2 2 0 0 0 2 2h.4a2 2 0 0 0 2-2v-.2a2 2 0 0 1 1-1.7l.4-.3a2 2 0 0 1 2 0l.2.1a2 2 0 0 0 2.7-.7l.2-.4a2 2 0 0 0-.7-2.7l-.2-.1a2 2 0 0 1-1-1.7v-.5a2 2 0 0 1 1-1.7l.2-.1a2 2 0 0 0 .7-2.7l-.2-.4a2 2 0 0 0-2.7-.7l-.2.1a2 2 0 0 1-2 0l-.4-.3a2 2 0 0 1-1-1.7V4a2 2 0 0 0-2-2z"/><circle cx="12" cy="12" r="3"/></symbol>
<symbol id="network" viewBox="0 0 24 24" fill="none" stroke="currentColor" stroke-width="1.7" stroke-linecap="round" stroke-linejoin="round"><rect x="9" y="2" width="6" height="5" rx="1"/><rect x="2" y="17" width="6" height="5" rx="1"/><rect x="16" y="17" width="6" height="5" rx="1"/><path d="M12 7v5M5 17v-3a2 2 0 0 1 2-2h10a2 2 0 0 1 2 2v3"/></symbol>
<symbol id="globe" viewBox="0 0 24 24" fill="none" stroke="currentColor" stroke-width="1.7" stroke-linecap="round" stroke-linejoin="round"><circle cx="12" cy="12" r="9"/><path d="M3 12h18M12 3a14 14 0 0 1 0 18M12 3a14 14 0 0 0 0 18"/></symbol>
<symbol id="plus-circle" viewBox="0 0 24 24" fill="none" stroke="currentColor" stroke-width="1.7" stroke-linecap="round" stroke-linejoin="round"><circle cx="12" cy="12" r="9"/><path d="M12 8v8M8 12h8"/></symbol>
<symbol id="plug" viewBox="0 0 24 24" fill="none" stroke="currentColor" stroke-width="1.7" stroke-linecap="round" stroke-linejoin="round"><path d="M9 2v5M15 2v5M6 7h12v4a6 6 0 0 1-12 0zM12 17v5"/></symbol>
<symbol id="swap" viewBox="0 0 24 24" fill="none" stroke="currentColor" stroke-width="1.7" stroke-linecap="round" stroke-linejoin="round"><path d="M7 4 3 8l4 4M3 8h14M17 20l4-4-4-4M21 16H7"/></symbol>
<symbol id="arrow-up" viewBox="0 0 24 24" fill="none" stroke="currentColor" stroke-width="1.7" stroke-linecap="round" stroke-linejoin="round"><path d="M12 19V5M5 12l7-7 7 7"/></symbol>
<symbol id="clock" viewBox="0 0 24 24" fill="none" stroke="currentColor" stroke-width="1.7" stroke-linecap="round" stroke-linejoin="round"><circle cx="12" cy="12" r="9"/><path d="M12 7v5l3 2"/></symbol>
<symbol id="lock" viewBox="0 0 24 24" fill="none" stroke="currentColor" stroke-width="1.7" stroke-linecap="round" stroke-linejoin="round"><rect x="4" y="11" width="16" height="10" rx="2"/><path d="M8 11V7a4 4 0 0 1 8 0v4"/></symbol>
<symbol id="key" viewBox="0 0 24 24" fill="none" stroke="currentColor" stroke-width="1.7" stroke-linecap="round" stroke-linejoin="round"><circle cx="7.5" cy="15.5" r="4.5"/><path d="m10.7 12.3 9.3-9.3M17 6l3 3M14.5 8.5l2 2"/></symbol>
<symbol id="download" viewBox="0 0 24 24" fill="none" stroke="currentColor" stroke-width="1.7" stroke-linecap="round" stroke-linejoin="round"><path d="M21 15v4a2 2 0 0 1-2 2H5a2 2 0 0 1-2-2v-4M7 10l5 5 5-5M12 15V3"/></symbol>
<symbol id="menu" viewBox="0 0 24 24" fill="none" stroke="currentColor" stroke-width="1.8" stroke-linecap="round" stroke-linejoin="round"><path d="M4 6h16M4 12h16M4 18h16"/></symbol>
<symbol id="chevron" viewBox="0 0 24 24" fill="none" stroke="currentColor" stroke-width="1.8" stroke-linecap="round" stroke-linejoin="round"><path d="m9 6 6 6-6 6"/></symbol>
<symbol id="sun" viewBox="0 0 24 24" fill="none" stroke="currentColor" stroke-width="1.7" stroke-linecap="round" stroke-linejoin="round"><circle cx="12" cy="12" r="4"/><path d="M12 2v2M12 20v2M4.9 4.9l1.4 1.4M17.7 17.7l1.4 1.4M2 12h2M20 12h2M4.9 19.1l1.4-1.4M17.7 6.3l1.4-1.4"/></symbol>
<symbol id="moon" viewBox="0 0 24 24" fill="none" stroke="currentColor" stroke-width="1.7" stroke-linecap="round" stroke-linejoin="round"><path d="M20.5 14.5A8.5 8.5 0 0 1 9.5 3.5a8.5 8.5 0 1 0 11 11z"/></symbol>
<symbol id="tag" viewBox="0 0 24 24" fill="none" stroke="currentColor" stroke-width="1.7" stroke-linecap="round" stroke-linejoin="round"><path d="M3 12V4a1 1 0 0 1 1-1h8l9 9-9 9z"/><circle cx="7.5" cy="7.5" r="1.2"/></symbol>
<symbol id="fingerprint" viewBox="0 0 24 24" fill="none" stroke="currentColor" stroke-width="1.7" stroke-linecap="round" stroke-linejoin="round"><path d="M12 11v3a8 8 0 0 1-2 5.3M8 4.7A8 8 0 0 1 20 11v1a20 20 0 0 1-.6 4.8M4 16v-5a8 8 0 0 1 1.5-4.7M8 12a4 4 0 0 1 8 0v2a16 16 0 0 1-1.2 6M7.8 15.5A12 12 0 0 1 6.5 20"/></symbol>
<symbol id="history" viewBox="0 0 24 24" fill="none" stroke="currentColor" stroke-width="1.7" stroke-linecap="round" stroke-linejoin="round"><path d="M3 12a9 9 0 1 0 3-6.7L3 8M3 3v5h5M12 7v5l3 2"/></symbol>
<symbol id="radar" viewBox="0 0 24 24" fill="none" stroke="currentColor" stroke-width="1.7" stroke-linecap="round" stroke-linejoin="round"><path d="M19.1 4.9A10 10 0 1 0 22 12M16.2 7.8A6 6 0 1 0 18 12"/><circle cx="12" cy="12" r="2"/><path d="M13.4 10.6 19 5"/></symbol>
<symbol id="layers" viewBox="0 0 24 24" fill="none" stroke="currentColor" stroke-width="1.7" stroke-linecap="round" stroke-linejoin="round"><path d="m12 2 10 5-10 5L2 7z"/><path d="m2 17 10 5 10-5M2 12l10 5 10-5"/></symbol>
<symbol id="info" viewBox="0 0 24 24" fill="none" stroke="currentColor" stroke-width="1.7" stroke-linecap="round" stroke-linejoin="round"><circle cx="12" cy="12" r="9"/><path d="M12 16v-4M12 8h.01"/></symbol>

<symbol id="router" viewBox="0 0 24 24" fill="none" stroke="currentColor" stroke-width="1.7" stroke-linecap="round" stroke-linejoin="round"><rect x="3" y="13" width="18" height="7" rx="2"/><path d="M7 16.5h.01M11 16.5h.01M15 13V8M9.5 6.5a5 5 0 0 1 11 0M12 9a2.5 2.5 0 0 1 6 0"/></symbol>
<symbol id="wifi" viewBox="0 0 24 24" fill="none" stroke="currentColor" stroke-width="1.7" stroke-linecap="round" stroke-linejoin="round"><path d="M2 8.5a15 15 0 0 1 20 0M5 12a10.5 10.5 0 0 1 14 0M8.5 15.5a5.5 5.5 0 0 1 7 0M12 19h.01"/></symbol>
<symbol id="switch" viewBox="0 0 24 24" fill="none" stroke="currentColor" stroke-width="1.7" stroke-linecap="round" stroke-linejoin="round"><rect x="2" y="7" width="20" height="10" rx="2"/><path d="M6 11v2M9 11v2M12 11v2M15 11v2M18 11v2"/></symbol>
<symbol id="printer" viewBox="0 0 24 24" fill="none" stroke="currentColor" stroke-width="1.7" stroke-linecap="round" stroke-linejoin="round"><path d="M6 9V3h12v6M6 18H4a2 2 0 0 1-2-2v-5a2 2 0 0 1 2-2h16a2 2 0 0 1 2 2v5a2 2 0 0 1-2 2h-2"/><rect x="6" y="14" width="12" height="7"/></symbol>
<symbol id="nas" viewBox="0 0 24 24" fill="none" stroke="currentColor" stroke-width="1.7" stroke-linecap="round" stroke-linejoin="round"><rect x="5" y="2" width="14" height="20" rx="2"/><path d="M9 6h6M9 10h6M9 14h6M12 18h.01"/></symbol>
<symbol id="computer" viewBox="0 0 24 24" fill="none" stroke="currentColor" stroke-width="1.7" stroke-linecap="round" stroke-linejoin="round"><rect x="2" y="3" width="20" height="13" rx="2"/><path d="M8 21h8M12 16v5"/></symbol>
<symbol id="laptop" viewBox="0 0 24 24" fill="none" stroke="currentColor" stroke-width="1.7" stroke-linecap="round" stroke-linejoin="round"><rect x="4" y="4" width="16" height="11" rx="1.5"/><path d="M2 19h20l-2-4H4z"/></symbol>
<symbol id="phone" viewBox="0 0 24 24" fill="none" stroke="currentColor" stroke-width="1.7" stroke-linecap="round" stroke-linejoin="round"><rect x="6" y="2" width="12" height="20" rx="2.5"/><path d="M11 18h2"/></symbol>
<symbol id="tablet" viewBox="0 0 24 24" fill="none" stroke="currentColor" stroke-width="1.7" stroke-linecap="round" stroke-linejoin="round"><rect x="4" y="2" width="16" height="20" rx="2.5"/><path d="M11 18h2"/></symbol>
<symbol id="tv" viewBox="0 0 24 24" fill="none" stroke="currentColor" stroke-width="1.7" stroke-linecap="round" stroke-linejoin="round"><rect x="2" y="4" width="20" height="13" rx="2"/><path d="M7 21h10"/></symbol>
<symbol id="cast" viewBox="0 0 24 24" fill="none" stroke="currentColor" stroke-width="1.7" stroke-linecap="round" stroke-linejoin="round"><path d="M2 8V6a2 2 0 0 1 2-2h16a2 2 0 0 1 2 2v12a2 2 0 0 1-2 2h-6M2 12a8 8 0 0 1 8 8M2 16a4 4 0 0 1 4 4M2 20h.01"/></symbol>
<symbol id="speaker" viewBox="0 0 24 24" fill="none" stroke="currentColor" stroke-width="1.7" stroke-linecap="round" stroke-linejoin="round"><rect x="5" y="2" width="14" height="20" rx="2"/><circle cx="12" cy="14" r="4"/><path d="M12 6h.01"/></symbol>
<symbol id="gamepad" viewBox="0 0 24 24" fill="none" stroke="currentColor" stroke-width="1.7" stroke-linecap="round" stroke-linejoin="round"><path d="M6 11h4M8 9v4M15 12h.01M18 10h.01"/><path d="M17.3 5H6.7a4 4 0 0 0-4 3.6l-.6 6.2A3 3 0 0 0 5 18c1 0 1.6-.5 2.2-1.2L8.5 15h7l1.3 1.8c.6.7 1.2 1.2 2.2 1.2a3 3 0 0 0 2.9-3.2l-.6-6.2A4 4 0 0 0 17.3 5z"/></symbol>
<symbol id="camera" viewBox="0 0 24 24" fill="none" stroke="currentColor" stroke-width="1.7" stroke-linecap="round" stroke-linejoin="round"><path d="M14.5 4h-5L7 7H4a2 2 0 0 0-2 2v9a2 2 0 0 0 2 2h16a2 2 0 0 0 2-2V9a2 2 0 0 0-2-2h-3z"/><circle cx="12" cy="13" r="3.5"/></symbol>
<symbol id="hub" viewBox="0 0 24 24" fill="none" stroke="currentColor" stroke-width="1.7" stroke-linecap="round" stroke-linejoin="round"><path d="M3 10.5 12 3l9 7.5V20a1 1 0 0 1-1 1H4a1 1 0 0 1-1-1z"/><path d="M9.5 15a3.5 3.5 0 0 1 5 0M12 18h.01"/></symbol>
<symbol id="chip" viewBox="0 0 24 24" fill="none" stroke="currentColor" stroke-width="1.7" stroke-linecap="round" stroke-linejoin="round"><rect x="5" y="5" width="14" height="14" rx="2"/><rect x="9" y="9" width="6" height="6"/><path d="M9 2v3M15 2v3M9 19v3M15 19v3M2 9h3M2 15h3M19 9h3M19 15h3"/></symbol>
<symbol id="server" viewBox="0 0 24 24" fill="none" stroke="currentColor" stroke-width="1.7" stroke-linecap="round" stroke-linejoin="round"><rect x="2" y="3" width="20" height="8" rx="2"/><rect x="2" y="13" width="20" height="8" rx="2"/><path d="M6 7h.01M6 17h.01"/></symbol>
<symbol id="cube" viewBox="0 0 24 24" fill="none" stroke="currentColor" stroke-width="1.7" stroke-linecap="round" stroke-linejoin="round"><path d="M21 16V8l-9-5-9 5v8l9 5z"/><path d="M3.3 7.6 12 12.5l8.7-4.9M12 22v-9.5"/></symbol>
<symbol id="watch" viewBox="0 0 24 24" fill="none" stroke="currentColor" stroke-width="1.7" stroke-linecap="round" stroke-linejoin="round"><rect x="6" y="6" width="12" height="12" rx="3"/><path d="M9 6l.5-4h5l.5 4M9 18l.5 4h5l.5-4M12 10v2l1.5 1"/></symbol>
<symbol id="unknown" viewBox="0 0 24 24" fill="none" stroke="currentColor" stroke-width="1.7" stroke-linecap="round" stroke-linejoin="round"><circle cx="12" cy="12" r="9"/><path d="M9.1 9a3 3 0 0 1 5.8 1c0 2-3 3-3 3M12 17h.01"/></symbol>

<symbol id="refresh" viewBox="0 0 24 24" fill="none" stroke="currentColor" stroke-width="1.9" stroke-linecap="round" stroke-linejoin="round"><path d="M21 12a9 9 0 0 1-15.5 6.2L3 16M3 12a9 9 0 0 1 15.5-6.2L21 8M21 3v5h-5M3 21v-5h5"/></symbol>
<symbol id="logout" viewBox="0 0 24 24" fill="none" stroke="currentColor" stroke-width="1.7" stroke-linecap="round" stroke-linejoin="round"><path d="M9 21H5a2 2 0 0 1-2-2V5a2 2 0 0 1 2-2h4M16 17l5-5-5-5M21 12H9"/></symbol>
<symbol id="grid" viewBox="0 0 24 24" fill="none" stroke="currentColor" stroke-width="1.7" stroke-linecap="round" stroke-linejoin="round"><rect x="3" y="3" width="7" height="7" rx="1"/><rect x="14" y="3" width="7" height="7" rx="1"/><rect x="3" y="14" width="7" height="7" rx="1"/><rect x="14" y="14" width="7" height="7" rx="1"/></symbol>
<symbol id="list" viewBox="0 0 24 24" fill="none" stroke="currentColor" stroke-width="1.7" stroke-linecap="round" stroke-linejoin="round"><path d="M8 6h13M8 12h13M8 18h13M3 6h.01M3 12h.01M3 18h.01"/></symbol>
<symbol id="search" viewBox="0 0 24 24" fill="none" stroke="currentColor" stroke-width="1.8" stroke-linecap="round" stroke-linejoin="round"><circle cx="11" cy="11" r="7"/><path d="m21 21-4.3-4.3"/></symbol>
<symbol id="shield" viewBox="0 0 24 24" fill="none" stroke="currentColor" stroke-width="1.7" stroke-linecap="round" stroke-linejoin="round"><path d="M12 22s8-4 8-10V5l-8-3-8 3v7c0 6 8 10 8 10z"/><path d="m9 12 2 2 4-4"/></symbol>
<symbol id="shield-off" viewBox="0 0 24 24" fill="none" stroke="currentColor" stroke-width="1.7" stroke-linecap="round" stroke-linejoin="round"><path d="M12 22s8-4 8-10V5l-8-3-8 3v7c0 6 8 10 8 10z"/></symbol>
<symbol id="back" viewBox="0 0 24 24" fill="none" stroke="currentColor" stroke-width="1.7" stroke-linecap="round" stroke-linejoin="round"><path d="M19 12H5M12 19l-7-7 7-7"/></symbol>
<symbol id="check" viewBox="0 0 24 24" fill="none" stroke="currentColor" stroke-width="2" stroke-linecap="round" stroke-linejoin="round"><path d="M20 6 9 17l-5-5"/></symbol>
<symbol id="check-circle" viewBox="0 0 24 24" fill="none" stroke="currentColor" stroke-width="1.7" stroke-linecap="round" stroke-linejoin="round"><circle cx="12" cy="12" r="9"/><path d="m8.5 12 2.5 2.5 4.5-5"/></symbol>
<symbol id="minus-circle" viewBox="0 0 24 24" fill="none" stroke="currentColor" stroke-width="1.7" stroke-linecap="round" stroke-linejoin="round"><circle cx="12" cy="12" r="9"/><path d="M8 12h8"/></symbol>
<symbol id="x" viewBox="0 0 24 24" fill="none" stroke="currentColor" stroke-width="2" stroke-linecap="round" stroke-linejoin="round"><path d="M18 6 6 18M6 6l12 12"/></symbol>
<symbol id="warn" viewBox="0 0 24 24" fill="none" stroke="currentColor" stroke-width="1.7" stroke-linecap="round" stroke-linejoin="round"><path d="m10.3 3.9-8.2 14A2 2 0 0 0 3.8 21h16.4a2 2 0 0 0 1.7-3.1l-8.2-14a2 2 0 0 0-3.4 0zM12 9v4M12 17h.01"/></symbol>
<symbol id="trash" viewBox="0 0 24 24" fill="none" stroke="currentColor" stroke-width="1.7" stroke-linecap="round" stroke-linejoin="round"><path d="M3 6h18M8 6V4a1 1 0 0 1 1-1h6a1 1 0 0 1 1 1v2M19 6l-1 14a2 2 0 0 1-2 2H8a2 2 0 0 1-2-2L5 6"/></symbol>
</defs>
</svg>
